<svg height="174pt" preserveAspectRatio="xMidYMid meet" viewBox="0 0 174 174" width="174pt" xmlns="http://www.w3.org/2000/svg"><g transform="matrix(.1 0 0 -.1 0 174)"><path d="m1027 1454c-4-4-7-15-7-25 0-28-15-31-44-8-18 14-26 17-27 7-1-7-2-22-3-33-1-18-10-21-91-25-69-4-104-12-147-32l-58-27-80 30c-168 61-330 72-498 34l-72-17v-53-54l38 13c21 8 80 20 130 27 187 26 407-33 569-153 53-39 68-70 38-82-8-3-49 17-94 48-150 100-314 142-491 125-52-5-116-16-142-25-45-15-48-18-48-51 0-29 3-34 18-28 109 42 297 53 409 22 117-31 273-118 273-151 0-28-21-27-68 3-91 58-181 93-279 109-88 14-105 14-187 0-50-9-108-23-128-32-32-14-38-21-38-46 0-36 0-36 70-9 76 30 241 37 330 15 74-18 208-83 224-108 21-34-7-38-54-9-25 15-76 41-115 56-63 26-81 29-190 30-105 0-128-3-185-25l-65-25 185-6c200-6 213-8 321-65 64-34 69-39 51-47-16-7-30-4-56 11-44 26-144 57-215 67-62 8-63-5-1-25 22-7 57-28 78-46l37-32-40-7c-58-11-78-24-37-25 44 0 91-21 159-70 62-44 73-48 73-25 0 53 86 155 157 187 28 12 52 33 68 58 61 96 132 153 220 176 75 20 151 6 196-37 17-16 33-29 35-29s4 16 4 35c0 26-9 45-34 73-27 29-35 48-38 82-2 34-7 44-18 42-8-2-12-1-8 3 3 4-11 30-33 58-21 29-39 60-39 70 0 11-6 17-17 15s-19 6-22 20c-4 13-9 20-14 16zm143-245c0-6-4-7-10-4-5 3-10 11-10 16 0 6 5 7 10 4 6-3 10-11 10-16z"/><path d="m1325 1379c-62-10-147-30-158-36-4-2 5-22 20-44 23-33 32-39 53-34 153 33 320 31 430-4 36-11 66-21 68-21 1 0 2 22 2 49 0 46-2 50-32 61-91 32-280 47-383 29z"/><path d="m1283 1204c-55-13-62-18-54-33 19-35 35-41 77-29 94 27 288 10 397-35l37-16v38 38l-72 23c-96 30-292 37-385 14z"/><path d="m1318 1108c-26-7-38-16-38-28 0-10-3-26-6-34-6-14-3-15 22-4 17 7 78 12 149 12 108 0 129-3 208-31l87-30v29c0 25-6 31-45 48-111 47-279 64-377 38z"/><path d="m1006 1054c-37-12-66-32-120-86l-71-72 60-7c78-10 141-38 188-85 40-39 77-102 77-129 0-23 11-19 91 35 48 32 84 50 104 50 42 0 64 15 33 23-12 4-33 7-46 7-19 0-22 4-17 21 4 13 2 25-5 29-6 4 2 7 18 8 38 1 125 44 100 50-32 7-124-18-198-53-72-35-94-37-84-10 8 21 117 72 194 91 53 13 91 15 202 10 153-8 179 1 94 33-69 26-176 39-176 21 0-9-3-10-13-1-33 26-218-30-310-94-29-20-47-19-47 4 0 19 35 46 105 80 33 16 34 18 19 39-8 12-19 22-23 22s-38-18-75-41c-67-40-101-47-101-19 0 8 24 31 54 52 51 36 53 38 25 37-16 0-51-7-78-15z"/><path d="m765 826c-163-71-189-285-48-392 138-105 339-13 360 164 10 86-48 184-132 223-47 22-136 24-180 5zm105-136 11-40h57c55-1 56-1 36-18-11-9-31-24-44-33l-25-16 17-52c17-54 16-55-39-13l-33 24-39-31c-21-17-41-31-44-31s2 23 11 50c15 48 15 51-4 64-10 8-30 23-44 35l-25 20 56 1h56l13 45c14 52 25 50 40-5z"/></g></svg>